<svg width="32" height="34" viewBox="0 0 32 34" fill="none" xmlns="http://www.w3.org/2000/svg">
<path fill-rule="evenodd" clip-rule="evenodd" d="M20.3293 33.268C17.579 33.4973 15.1205 32.4979 13.1596 30.2074C12.2572 29.1539 11.1733 28.2563 10.2595 27.212C9.08351 25.8672 7.81059 25.8168 6.38322 26.7101C4.99002 27.5826 3.60038 28.46 2.21192 29.3391C1.0457 30.0778 0.493192 30.0194 0.375937 28.3871C0.226764 26.3201 0.891117 24.9489 2.67473 23.8522C5.58064 22.0656 8.33184 20.0176 11.3677 18.4476C14.9811 16.5779 18.5219 18.1963 19.5739 22.0952C19.6075 22.2174 19.6384 22.3392 19.676 22.4603C21.2631 27.5877 23.2172 28.4665 28.0945 26.2444C28.2671 26.166 28.4289 26.0583 28.607 25.9991C29.4565 25.7152 30.3449 24.7178 31.1912 25.6086C32.0534 26.5155 31.7887 27.7567 31.3305 28.8304C30.8673 29.9146 29.9953 30.6727 28.9439 31.1761C26.2977 32.4437 23.5632 33.394 20.3293 33.268Z" fill="#D3D3D3"/>
<path fill-rule="evenodd" clip-rule="evenodd" d="M15.871 10.0229C14.3614 9.86385 12.7353 9.71775 12.1034 7.87873C11.4728 6.043 12.4616 4.86723 13.8774 3.93377C16.4392 2.24585 19.2352 1.08416 22.2665 0.633483C25.1006 0.211241 25.8529 1.33121 24.8459 3.97141C23.2641 8.12013 21.0555 9.52624 15.871 10.0229Z" fill="#D3D3D3"/>
</svg>
